<?xml version="1.0" encoding="UTF-8"?>
<svg xmlns="http://www.w3.org/2000/svg" version="1.1" viewBox="0 0 504 504">
  <defs>
    <style>
      .cls-1, .cls-2 {
        fill: #1d1d1b;
      }

      .cls-3, .cls-4 {
        fill: #fff;
      }

      .cls-5 {
        fill: #7a1c79;
      }

      .cls-5, .cls-4, .cls-6, .cls-7, .cls-2, .cls-8 {
        fill-rule: evenodd;
      }

      .cls-6 {
        fill: #e52713;
      }

      .cls-9 {
        stroke-linecap: round;
        stroke-linejoin: round;
        stroke-width: .2px;
      }

      .cls-9, .cls-10 {
        fill: none;
        stroke: #1d1d1b;
      }

      .cls-7 {
        fill: #041;
      }

      .cls-8 {
        fill: #b98f00;
      }

      .cls-10 {
        stroke-miterlimit: 22.9;
        stroke-width: .2px;
      }
    </style>
  </defs>
  <!-- Generator: Adobe Illustrator 28.6.0, SVG Export Plug-In . SVG Version: 1.2.0 Build 709)  -->
  <g>
    <g id="Capa_1">
      <g>
        <path class="cls-3" d="M486,252c0,129.2-104.8,234-234,234S18,381.2,18,252,122.8,18,252,18s234,104.8,234,234Z"/>
        <g>
          <g>
            <path class="cls-4" d="M195,131.1s23.8-9,36.7,6.6c25.9-18.1,42.5-1,42.5-1l24.3-38s-17.1-17-37.8-2.5c-17.1-14.5-34.1-5-34.1-5l-31.6,40Z"/>
            <path class="cls-1" d="M195.6,131s.7-.3.9-.4c2.3-.7,7.7-2,14-2s15.4,1.9,21.3,9l.2.2h.2c8.9-6.4,16.7-8.4,23.1-8.4s10.8,1.8,14,3.6c1.6.9,2.9,1.8,3.7,2.5.4.3.8.6,1,.8.2.2.3.3.3.3l.2.2,24.6-38.5h-.1c0-.2-8.5-8.6-20.8-8.6-5.2,0-11.2,1.5-17.4,5.9l.2.2.2-.2c-7.4-6.3-14.9-8.1-21-8.1-7.9,0-13.5,3.1-13.5,3.1h0s-31.1,39.7-31.1,39.7v.6s.9-.9.9-.9v-.3c.1,0,30.5-38.7,30.5-38.7l-.2-.2v.2c.1,0,.5-.2,1.1-.5,1.9-.9,6.4-2.6,12.3-2.6s13.3,1.8,20.6,8h.1c0,.1.2,0,.2,0,6.1-4.3,11.9-5.8,17.1-5.8s11.1,2.1,14.7,4.2c1.8,1,3.2,2.1,4.2,2.9.5.4.8.7,1.1.9.3.2.4.3.4.3l.2-.2h-.2c0-.1-24.3,37.9-24.3,37.9h.2c0,.1.2,0,.2,0,0,0-7.1-7.4-19.4-7.4s-14.4,2.1-23.4,8.3l.2.2.2-.2c-6.1-7.3-14.5-9.2-21.7-9.2s-11.5,1.2-13.7,1.9c-.7.2-1.2,1-1.2,1Z"/>
          </g>
          <g>
            <path class="cls-3" d="M273.8,139.8l25.5-39.1-2.7.9-22.3,34.9s-16.6-17-42.5,1c-5.1-6.2-12-8.5-18.4-9l-13.1,4.2c2.6-.5,5.9-1,9.4-1,7.2,0,15.5,1.9,21.5,9.1,8.9-6.2,16.8-8.2,23.2-8.2,11.3,0,18.3,6.3,19.2,7.2Z"/>
            <path class="cls-1" d="M273.8,139.8l.2.2,26-39.7-3.5,1.1-22.4,35h.2c0,.1.2,0,.2,0,0,0-7.2-7.4-19.4-7.4-6.5,0-14.4,2.1-23.4,8.3l.2.2.2-.2c-5.2-6.2-12.1-8.6-18.5-9.1h0s-17.7,5.7-17.7,5.7v.5s4.6-1.3,4.6-1.3c2.6-.5,5.9-1.2,9.4-1.2h0c0-.1,0,0,0,0h0c0-.1,0,0,0,0,7.2,0,15.4,1.9,21.3,9v.2c.1,0,.3-.2.3-.2,8.9-6.2,16.7-8.2,23-8.2v-.2.2s0,0,0,0v-.2.2s0,0,0,0h0c11.2,0,18.1,6.2,19,7.1l.2.2.2-.3-.2-.2.2-.2c-1-.9-8-7.3-19.4-7.3v.3-.3s0,0,0,0c-6.5,0-14.4,2.1-23.3,8.3v.2c.1,0,.4-.2.4-.2-6.1-7.2-14.5-9.2-21.7-9.2h0v.3s0-.3,0-.3c-3.6,0-6.9.5-9.5,1v.2c0,0,.1.3.1.3l13.3-4.3-.3-.2v.3c6.3.5,13.4,2.7,18.2,8.9l.2.2h.2c8.9-6.4,16.7-8.4,23.1-8.4s10.8,1.8,14,3.6c1.6.9,2.9,1.8,3.7,2.5.4.3.7.6.9.8.2.2.3.3.3.3l.2.2,22.5-35.1,1.9-.6-25.1,38.5h.2c0,.1.2,0,.2,0l-.2.2Z"/>
          </g>
          <g>
            <path class="cls-3" d="M297.3,103.7l-23.6,36c-1-.9-7.9-7.2-19.2-7.2s-14.3,2-23.2,8.2c-5.2-6.2-12.2-8.5-18.7-9l-17,5.7c5.4-1.7,24.2-6.2,35.2,7,25.9-18,42.4-1,42.4-1l26.4-40.6-2.3.8Z"/>
            <path class="cls-1" d="M297.3,103.7l-.2-.2-23.6,36.1h.2c0,.1.2,0,.2,0-1-.9-8-7.3-19.4-7.3v.3-.3s0,0,0,0c-6.5,0-14.4,2.1-23.3,8.3v.2c.1,0,.4-.2.4-.2-5.3-6.3-12.4-8.6-18.9-9.1h0s-16.8,5.6-16.8,5.6v.6c2.5-.7,7.6-2.1,13.6-2.1s15.4,1.9,21.3,9l.2.2h.2c8.9-6.4,16.7-8.4,23.1-8.4s10.8,1.8,14,3.6c1.6.9,2.9,1.8,3.7,2.5.4.3.7.6,1,.8.2.2.3.3.3.3l.2.2,27-41.5-3.1,1h0c0,0,.2.2.2.2v.2c.1,0,1.7-.5,1.7-.5l-26,39.9h.2c0,.1.2,0,.2,0,0,0-7.2-7.4-19.4-7.4s-14.4,2.1-23.4,8.3v.2c.1,0,.3-.2.3-.2-6-7.3-14.4-9.2-21.7-9.2s-11.1,1.3-13.6,2v.2s0,.3,0,.3l16.9-5.6v-.2c0,0-.1.3-.1.3,6.4.5,13.4,2.7,18.6,8.9v.2c.1,0,.3-.2.3-.2,8.9-6.2,16.7-8.2,23-8.2h0c0-.1,0,0,0,0h0c0-.1,0,0,0,0h0c11.2,0,18.1,6.2,19,7.1l.2.2,23.7-36.3h-.2c0-.1.1.1.1.1v-.2Z"/>
          </g>
          <g>
            <path class="cls-3" d="M298.3,105l-25.1,38.5s-16.6-17-42.4,1c-5.2-6.3-12.3-8.5-18.8-9l-16.5,5.8c3.1-1.1,24.4-7.7,36.3,6.7,25.9-18,42.5-1,42.5-1l28.4-43.6-4.4,1.6Z"/>
            <path class="cls-1" d="M298.3,105h-.2c0-.1-25.1,38.3-25.1,38.3h.2c0,.1.2,0,.2,0,0,0-7.2-7.4-19.4-7.4s-14.4,2.1-23.4,8.3v.2c.1,0,.3-.2.3-.2-5.3-6.4-12.4-8.6-19-9.1h0s-16.3,5.7-16.3,5.7v.5c1.6-.5,7.5-2.3,14.6-2.3s15.4,1.9,21.3,9l.2.2h.2c9-6.4,16.7-8.4,23.1-8.4s10.8,1.8,14,3.6c1.6.9,2.9,1.8,3.7,2.5.4.3.7.6.9.8.2.2.3.3.3.3l.2.3,29-44.5-5.3,1.9h0c0,0,.2.2.2.2v.2c0,0,3.8-1.3,3.8-1.3l-28,42.9h.2c0,.1.2,0,.2,0,0,0-7.2-7.3-19.4-7.3s-14.4,2.1-23.4,8.3l.2.2.2-.2c-6.1-7.3-14.5-9.2-21.7-9.2-7.2,0-13,1.8-14.6,2.4v.5l16.4-5.8v-.2c0,0-.1.3-.1.3,6.5.5,13.4,2.7,18.6,8.9l.2.2h.2c8.9-6.4,16.7-8.4,23.1-8.4s10.8,1.8,14,3.6c1.6.9,2.9,1.8,3.7,2.5.4.3.7.6,1,.8.2.2.3.3.3.3l.2.2,25.2-38.8h-.2c0-.1,0,.1,0,.1v-.2Z"/>
          </g>
        </g>
        <g>
          <g>
            <path class="cls-2" d="M67.6,324.6c7.8-3.6,12.7-6.4,17.6,3.2,3,6,3.2,9.7-3.6,12.9h0l-4.4,2.1-4.1,2h0c-1.1.6-2.2,1.1-3.4,1.7h0l-4.3-8.5h0c.3-.1.6-.2.7-.3.5-.2,1.6-.7,3.2-1.5h0l3.5-1.6,4.7-2.2,6.2-3,.9-.4h0c-.2-.6-.3-.8-.5-1.2-2.8-5.5-5.6-6.6-11.3-4.3-1.9.7-3.3,1.4-6.5,2.9-1.7.8-3.3,1.6-4.9,2.4,0,0,0,0,0,0-.4.2-.9.1-1-.2-.2-.3,0-.7.4-.9,2.3-1.1,4.7-2.1,7-3.1h0Z"/>
            <path class="cls-2" d="M67.6,316.4l.7-.2,3.6-1.2h0c1.4-.4,2.7-1,4.2-1.4.4-.1.7-.2.9-.3.4-.1.8,0,1,.4.1.4,0,.6-.6.8h0c-3.4,1.1-6.8,2-10.2,3.1-.9.3-2.3.7-4.1,1.4-3.8,1.2-4.3,1.4-6.6,2.2,1.3-5.6,2.6-11.2,3.7-16.8h0l1-4.9h0c-1,.3-1.9.6-2.5.8-1.9.6-3.8,1.3-5.8,1.9-.5.1-.8.3-1,.3-.4.1-1,.3-1.2-.2-.2-.4,0-.6.7-.9h0l2.8-.9,3.6-1h0c2-.6,3.5-1.1,4.7-1.5,3.3-1.1,6.5-2.2,9.7-3.2-1.8,7.2-3.3,14.5-4.6,21.7h0Z"/>
            <path class="cls-2" d="M70.3,289.9l-1.2.2h0c-4.9,1-9.8,1.9-14.8,3h0l-4.5.9-.8.2-2-9.2,1.1-.2,4.5-.8,5.3-1.1,4.8-1,4.9-1,.8-.2,2,9.2h0Z"/>
            <path class="cls-2" d="M44.7,254.6c.1,0,.4.2.8.4h0l17.5,7.4,4.7,2.1-15.7,10.7-6.4,4.4-1-10.8,12-8.1-5.6-2.3h0c-2.3-1-4.6-1.7-6.8-2.7-1-.3-1.2-.5-1.2-.9,0-.3.2-.7.6-.7.2,0,.4,0,1.2.4h0Z"/>
            <path class="cls-2" d="M65.9,231v.5s-.8,17.5-.8,17.5l-11.6-.6h0c-3.4-.1-6.8-.2-10.2-.3h0l.8-16.3v-.8h0c0-.5.2-.8.6-.7.4,0,.6.2.5.8h0s-.5,7.7-.5,7.7l5,.3v-.4s.2-7.9.2-7.9h0c0-.8.2-1,.6-1,.4,0,.6.3.5,1,0,1.5-.2,3-.3,4.5h0l-.2,3.5v.4h0c.9,0,1.8,0,2.7.2h0l11,.4.3-8.9h0c0-.7.2-1,.6-.9.5,0,.6.1.5,1.2h0Z"/>
            <path class="cls-2" d="M65,209.5c.3,1.2.3,1.8.2,3.4,1.8-1.8,3.1-4,4.1-6.3.1-.3.3-.4.6-.4.3,0,.5.4.4.8-.6,3.1-4.7,7-7,9.1h0l4.8.8-1.7,9.2h-.7c0-.1-5.1-1-5.1-1l-6.1-1.2-4.9-.8-4.1-.7h-.5c0,0,1.2-6.2,1.2-6.2h0c1-5.5,1.7-7.8,2.9-9.6,2-2.9,5.6-4.3,9.2-3.7,3.2.6,6.1,3.2,6.9,6.5h0ZM49.5,207.8c-.7,1.4-1.2,2.9-1.8,5.4h0l.9.2,5.2,1,4.4.8,2.8.5h0c.2,0,.3,0,.7.1,1-.7,1.2-.8,2.1-1.7.1-.3.1-.5.2-.7.9-4.6-1.8-8.6-6.2-9.4-3.3-.6-6.8.9-8.4,3.8h0Z"/>
            <path class="cls-2" d="M74.4,194.3c-.8,2.3-2.2,4.2-4.3,5.5-.8.5-1.3.7-1.7.6-.3,0-.5-.4-.4-.6.2-.5,4-1.6,5.3-5.5.4-1.1.2-1.8-.5-2-3-.9-10.7,6.1-16.3,4.3-3.7-1.1-5.3-5.4-3.7-10.1.7-2,1.7-3.7,3.1-4.8.7-.6,1.5-.9,1.8-.8.2,0,.4.3.3.6,0,.3-3.1,1.7-4,4.6-.3,1,0,1.8.7,2,2.9.9,11.4-6.2,16.5-4.6,3.7,1.2,5,5.5,3.3,10.7h0Z"/>
            <path class="cls-2" d="M78.5,181l-1.1-.5h0c-4.6-1.9-9.2-3.9-13.8-5.9h0l-4.2-1.7-.8-.3,3.9-8.7,1,.4,4.1,1.8,5,2.1,4.5,1.9,4.6,1.9.7.3-3.9,8.6h0Z"/>
            <path class="cls-2" d="M89.9,158.6l-1.3,2.2-4,6.8h0c-3.9-2.2-6.9-3.9-9.1-5.1-2.6-1.4-4.9-2.7-9.8-5.3h0l4.2-7h0c1.8-3,2.6-4,4-5.2,3.3-2.7,8.4-3,12.2-.9,5.5,3.1,7,9.3,3.9,14.6h0ZM73.8,146.2c-1,.9-1.8,2-2.4,3.2h0l6.7,3.7h0c2.3,1.3,4,2.2,5.1,2.8.9.5,2.7,1.5,5.4,2.9,1.6-2.6,2.5-5.4,1.6-8.5-.8-2.4-2.4-4.4-4.6-5.6-3.7-2-8.6-1.5-11.7,1.4h0Z"/>
            <path class="cls-2" d="M106,135.7l-3.2-.6-6.7,8.3.8,2h0c.2.4.7,1.1.4,1.5-.2.3-.5.3-.7.2-.5-.4-1.6-3.7-2-4.6h0l-2.7-6.9-3-7.4h0c-.7-1.7-1.3-3.4-2.1-5h0l26,4-6.8,8.4h0ZM91.9,133.2l.3.8,1.7,4.1,1.4,3.4.3.6h0c2-2.4,5.9-7.3,5.9-7.3h0l-9.6-1.7h0Z"/>
            <path class="cls-2" d="M122.9,117.7l-1.9,1.8-5.8,5.4h0c-3.1-3.2-5.4-5.6-7.2-7.4-2.1-2.1-3.9-3.9-7.9-7.8h0l6.1-5.6h0c2.6-2.4,3.6-3.1,5.3-3.8,4-1.7,9-.6,12,2.4,4.4,4.5,3.9,10.8-.5,15.1h0ZM111.1,101.5c-1.2.6-2.2,1.4-3.2,2.4h0l5.3,5.4h0c1.8,1.9,3.2,3.3,4,4.1.8.8,2.2,2.2,4.3,4.2,2.2-2.1,3.9-4.5,4-7.7,0-2.5-1-4.9-2.8-6.7-2.9-3-7.8-3.8-11.6-1.8h0Z"/>
            <g>
              <path class="cls-2" d="M152.3,72.2c-1.6.9-3.1,1.7-4.6,2.6h0l.4.7,2.2,3.4,2.4,3.9,3.1,4.9h0c1.4,2,2.1,3.3,2.4,3.7,0,.1.2.3.3.4h0l-8.3,4.9h0c-1-1.5-1.9-3.1-2.9-4.7h0l-3.6-5.8-2.3-3.6-2-3h0c-1.6.9-3.1,2-4.6,2.9-.5.3-.8.3-1,0-.2-.3-.1-.6.4-.9h0l.3-.2,14.3-8.4,2.4-1.5.6-.3h0c.6-.3.8-.3,1.1,0,.2.3,0,.5-.4.8h0Z"/>
              <path class="cls-2" d="M184.2,79.8l-.4.2-16.6,7.2-4.6-10.3h0c-1.4-3-2.9-5.9-4.3-8.9h0l15.4-6.7.8-.3h0c.5-.2.8-.1.9.2.2.4,0,.6-.4.8h0s-7.3,3.1-7.3,3.1l2,4.4.4-.2,7.4-3.3h0c.8-.3,1-.3,1.2,0,.2.4,0,.7-.7,1-1.4.6-2.9,1.1-4.3,1.8h0l-3.3,1.4-.3.2h0c.3.8.7,1.6,1.1,2.5h0l4.5,9.6,8.4-3.7h0c.7-.3,1-.3,1.1.1.2.4,0,.5-.9,1h0Z"/>
              <path class="cls-2" d="M206,70.5c-1.4,2.4-4,4.4-6.7,5.1-6.2,1.8-12.6-1.6-14.4-7.5-1.8-5.9,1.7-12.1,7.7-13.8,3.4-1,7.1-.4,9.9,1.4.5.3.8.6.8.8,0,.2,0,.5-.3.5-.3,0-.5,0-.9-.3-2.6-2-6.1-2.4-9.2-1.5-.5.1-.6.2-1,.4h0l.2.6,1.2,4.2,1.5,5.1h0c.3,1.1.8,2.6,1.4,4.5h0l1.3,4.3.2.7h0c.7-.1,1-.1,1.3-.2,3.7-1,6.4-4.1,7.2-7.8.1-.5.3-.7.4-.7.3,0,.6,0,.7.2.2.6-.5,2.6-1.4,4.1h0Z"/>
              <path class="cls-2" d="M212.1,61.3v.8c.1,0,.8,3.6.8,3.6h0c.2,1.4.5,2.8.7,4.2,0,.4.1.8.2.9,0,.4,0,.8-.5.9-.4,0-.6-.2-.7-.7h0c-.5-3.4-1-6.9-1.5-10.3-.1-.9-.3-2.3-.7-4.2-.6-3.8-.7-4.4-1.1-6.7,5.5,2.2,11,4.3,16.5,6.3h0l4.9,1.8h0c-.1-1-.3-1.9-.4-2.6-.3-1.9-.7-3.8-1-5.8,0-.5-.1-.8-.2-1,0-.4-.2-1,.4-1.1.4,0,.6,0,.8.8h0l.4,2.8.5,3.6h0c.3,2,.5,3.6.7,4.8.5,3.3,1.2,6.6,1.7,9.8-7-2.9-14.2-5.5-21.4-8h0Z"/>
              <path class="cls-2" d="M249,68.4c-6.2,0-11.5-5-11.5-11,0-6.2,5-11.2,11.5-11.3,6.3,0,11.6,4.9,11.7,11,0,6.2-5,11.2-11.6,11.3h0ZM248.8,47.1c-.5,0-.6,0-1.1.1,0,3.6,0,7.3,0,10.9,0,1.7,0,3.2,0,4.3h0v3.2c0,0,.1,1.9.1,1.9h0c.4,0,.6,0,1,0,6.1,0,10.8-4.6,10.7-10.4,0-5.6-4.8-10.1-10.8-10h0Z"/>
              <path class="cls-2" d="M284.2,70.3h-.4s-16.6-2-16.6-2l-2-.2h0c.3-1.9.5-3.8.8-5.8h0l.5-3.6.7-5.6.5-4.5.2-1.4,9.7,1.2h0c-.4,2.8-.8,5.6-1.2,8.4h0l-.4,3.6-.5,4.3-.4,3.6h.4s3.6.5,3.6.5h0c1.7.2,3.5.3,5.2.5.4,0,1,.1.9.6,0,.4-.2.5-.9.4h0Z"/>
              <path class="cls-2" d="M298.7,74.3c-6-1.5-9.7-7.8-8.1-13.6,1.6-6,7.9-9.5,14.2-7.9,6.1,1.6,9.8,7.7,8.2,13.6-1.6,6-7.9,9.5-14.3,7.9h0ZM304.4,53.6c-.5-.1-.6-.2-1.1-.2-1,3.5-2,7-3,10.5-.5,1.7-.9,3.1-1.1,4.1h0l-.8,3.1-.5,1.9h0c.4.2.6.2,1,.3,5.9,1.5,11.6-1.7,13.1-7.3,1.5-5.5-1.9-11-7.7-12.4h0Z"/>
              <path class="cls-2" d="M323.9,82.5c-5.8-2.4-8.6-9-6-14.8,2.4-5.5,9.3-8.1,15.1-5.7,3,1.2,5.3,3.6,6.4,6.6.3.9.4,1.4.3,1.7,0,.2-.4.3-.7.2-.2,0-.4-.2-.5-.7-.8-3.3-2.9-5.7-6-7-.4-.2-.6-.2-1.2-.4h0l-.3.6-1.8,4-2.2,4.9-1.9,4.3-1.7,4.1-.3.7h0c.4.3.5.4,1,.6,5.1,2.1,11,0,13.5-4.6h0l-6.9-2.8h0c-.5-.2-1-.4-1.4-.6-.6-.2-.7-.4-.5-.8.1-.3.4-.4.9-.2h0l1.5.6,7.9,3.3h0c-2.7,5.9-9.2,8.4-15.2,6h0Z"/>
              <path class="cls-2" d="M338.8,88.6l.6-1h0c2.5-4.2,5-8.4,7.5-12.7h0l2.2-3.9.4-.7,8.5,4.6-.5.9-2.3,3.8-2.7,4.6-2.4,4.1-2.4,4.2-.4.7-8.5-4.6h0Z"/>
              <path class="cls-2" d="M368.6,104.3c-2.8.4-6-.4-8.3-1.9-5.2-3.6-6.4-10.6-2.7-15.7,3.7-5,10.9-6.1,16-2.6,2.9,2,4.7,5.2,4.9,8.4,0,.6,0,.9-.1,1.1,0,.2-.4.2-.6,0-.3-.2-.3-.3-.3-.9,0-3.2-1.8-6.2-4.5-8-.4-.3-.5-.3-1-.5h0l-.4.5-2.7,3.6-3.2,4.3h0c-.7.9-1.6,2.2-2.8,3.8h0l-2.7,3.6-.4.6h0c.5.4.7.6,1,.8,3.1,2.2,7.2,2.4,10.9.7.5-.2.7-.3.8-.1.3.2.4.5.2.6-.4.5-2.4,1.2-4.2,1.5h0Z"/>
              <path class="cls-2" d="M381.6,118.8l.9-3-7.8-7.3-2.1.6h0c-.5.2-1.3.6-1.6.2-.3-.2-.3-.5-.1-.7.5-.5,4-1.3,4.9-1.5h0l7.4-2,7.8-2.1h0c1.8-.5,3.6-1,5.4-1.5h0l-6.7,24.7-8-7.4h0ZM385.5,105.5l-.9.2-4.4,1.2-3.7,1-.7.2h0c2.4,2.2,7,6.4,7,6.4h0l2.6-9h0Z"/>
              <path class="cls-2" d="M406.9,148.2l-1.5-2.2-4.5-6.5h0c3.8-2.4,6.7-4.2,8.8-5.6,2.5-1.6,4.7-3,9.3-6.1h0l4.7,6.7h0c1.9,2.8,2.6,4,3,5.7,1.1,4.1-.9,8.7-4.5,11-5.3,3.4-11.7,1.9-15.3-3.1h0ZM425.4,139.7c-.4-1.3-1.1-2.4-1.9-3.5h0l-6.5,4.1h0c-2.2,1.4-3.8,2.5-4.9,3.1-.9.6-2.6,1.7-5.1,3.4,1.7,2.5,3.9,4.5,7.1,5.1,2.5.4,5.1,0,7.3-1.5,3.5-2.3,5.2-6.7,3.9-10.7h0Z"/>
              <path class="cls-2" d="M423.4,177.3l-.2-.4-8-15.8,10.5-4.8h0c3-1.4,6.1-2.9,9.1-4.4h0l7.4,14.7.4.8h0c.2.5.2.8-.2.9-.4.2-.6,0-.8-.4h0s-3.4-7-3.4-7l-4.5,2.1.2.4,3.7,7h0c.4.8.4,1,0,1.2-.4.2-.6,0-1-.6-.7-1.3-1.3-2.7-2-4.1h0l-1.6-3.1v-.3h-.1c-.8.4-1.7.8-2.5,1.2h0l-9.9,4.7,4.1,8h0c.3.6.3.9,0,1.1-.4.2-.6.1-1.1-.8h0Z"/>
              <path class="cls-2" d="M436.7,206c-.2-.9-.3-1.9-.5-2.9-1.2.3-2.5.6-3.8.9h0l-2.3-9.2.9-.2,6.2-1.4,5.5-1.3,4.4-1.1,3.5-.9h.6c0-.1,1.7,6.7,1.7,6.7h0c.8,3.1,1.2,5.4,1.3,7.2.2,4-2.7,7.8-6.7,8.8-5,1.2-9.6-1.7-10.9-6.7h0ZM453,206.5c.7-2.3.1-4.9-.5-7.1h0l-1,.2-5.4,1.3-4.7,1.1h0c-1.4.3-2.7.7-4.1,1,0,.8.1,1.9.4,3.1,1.1,4.3,5.3,6.8,9.7,5.7,2.5-.6,4.9-2.9,5.6-5.3h0Z"/>
              <path class="cls-2" d="M437.4,232.7l2.8-1.7-1-10.5-1.9-.9h0c-.5-.1-1.4-.3-1.4-.9,0-.3.1-.5.4-.5.7,0,3.9,1.6,4.7,1.9h0l6.9,3.2,7.4,3.4h0c1.7.8,3.4,1.6,5.1,2.3h0l-21.8,14.4-1-10.7h0ZM449.4,225.1l-.8-.4-4.1-1.9-3.5-1.6-.6-.3h0c.3,3.1.9,9.2.9,9.2h0l8.1-5.1h0Z"/>
              <path class="cls-2" d="M448.8,247.9h-.8s-3.8-.2-3.8-.2h0c-1.4,0-2.9,0-4.4-.1-.5,0-.8,0-.9,0-.5,0-.8-.2-.8-.7,0-.4.3-.6.9-.5h0c3.5.1,7.1.4,10.7.6,1,0,2.5.1,4.4.2,4,.2,4.6.2,7,.2-3.3,4.7-6.5,9.5-9.7,14.4h0l-2.8,4.3h0c1.1,0,2,.1,2.7.2,2,0,4,.1,6.1.2.5,0,.9,0,1.1,0,.5,0,1.1,0,1.1.6,0,.5-.2.6-1,.6h-3c0-.1-3.7-.4-3.7-.4h0c-2-.1-3.7-.2-5-.3-3.4-.2-6.9-.2-10.3-.4,4.3-6.1,8.4-12.3,12.3-18.6h0Z"/>
              <path class="cls-2" d="M434.4,284l3.1-.9,2.1-10.3-1.7-1.4h0c-.4-.3-1.2-.7-1.1-1.3,0-.3.3-.5.5-.5.7.1,3.2,2.5,3.9,3.1h0l5.7,5,6.1,5.2h0c1.4,1.2,2.8,2.4,4.2,3.6h0l-25.1,7.9,2.1-10.5h0ZM448,280l-.6-.6-3.4-2.9-2.9-2.4-.5-.4h0c-.6,3.1-1.8,9.1-1.8,9.1h0l9.3-2.7h0Z"/>
              <path class="cls-2" d="M424.9,314.9l11.6,1-7-9.3,11.2-3h0c-2.3-1.7-4.7-3.3-7.2-4.7-.7-.5-2.4-1.1-2-2.1.1-.4.4-.6.7-.5.5.2,1,.6,1.4,1h0l2.8,2,4.9,3.5,4.5,3.2,4.1,2.9,1,.7-14.9,3.7,9,11.9h-.9c0,0-4.6-.4-4.6-.4l-6.9-.5-5.5-.3-4.9-.3h-.7s3.4-8.8,3.4-8.8h0Z"/>
              <path class="cls-2" d="M413.1,338.2h3.3c0,.1,5.3-9,5.3-9l-1.1-1.8h0c-.3-.4-.9-1-.6-1.5.1-.2.4-.4.6-.2.6.3,2.2,3.4,2.7,4.2h0l3.8,6.4,4,6.8h0c.9,1.5,1.9,3.2,2.8,4.7h0l-26.4-.3,5.5-9.3h0ZM427.4,338.7l-.4-.8-2.3-3.9-1.9-3.2-.3-.5h0c-1.6,2.7-4.7,8.1-4.7,8.1h0l9.7.3h0Z"/>
            </g>
          </g>
          <g>
            <g>
              <path class="cls-2" d="M217.2,454.8c.2-1.2.4-2.4.6-3.6h0l.8-4.9.7-4.2.7-4.5v-.7h.1c-1.1.1-2.3.6-3.4.4-.3,0-.4-.3-.4-.6,0-.5.2-.5,1.8-.6,1.8-.3,3.8-.5,5.7-.6h0l5.7-.7h0c-.2,1.2-.4,2.4-.6,3.6h0l-.6,3.9h0c-.5,3.2-.9,6.3-1.4,9.5h0l-.5,3.6v.5s-9.1-1.3-9.1-1.3h0Z"/>
              <path class="cls-2" d="M239.7,457.8c-2.4-.1-4.6-1.2-5.7-2.8-.1-.3-.3-.6-.3-.8,0-.4.4-.6.8-.6.9,0,.9,3.1,5.4,3.3.5,0,.7,0,1.3,0h0v-.5s.3-4.3.3-4.3l.3-5.3.2-4.7.2-4.5v-.8h0c-.3,0-.5,0-.6,0-4.4-.2-8.2,2.9-8.5,7.4-.2,2.6,1.9,4.9,4.4,5,.7,0,1.5-.1,2.1-.4.5-.2.6-.3.8-.3.3,0,.4.2.4.5,0,.9-2.5,1.3-3.3,1.2-3.2-.2-5.6-2.9-5.5-6.2.2-4.9,4.5-8.5,9.9-8.3,6,.3,9.8,4.9,9.5,11.4-.3,6.3-5.5,11-11.7,10.7h0Z"/>
              <path class="cls-2" d="M260.9,457.8c-5.2.2-9-2-9.2-5.2,0-1.7.8-3,2.9-4.3-1.9-1.6-2.7-3.2-2.8-5.3-.2-4,3.7-7.2,9.2-7.4,4.5-.2,7.5,1.5,7.6,4.5,0,1.6-.6,2.7-2.3,3.8,2.4,1.4,4.1,3,4.3,5.9.2,4.2-4.2,7.8-9.6,8h0ZM260.6,436.6c-2.5.1-4.2,1-4.1,2,0,2,7,4.2,8.7,4.9,1.7-1.1,2.3-1.9,2.2-3.5-.1-2.3-2.7-3.6-6.8-3.4h0ZM262.1,452.4c-2.3-1-4.5-2-6.6-3.3-1.9,1.1-2.7,2-2.6,3.4.1,2.7,3.4,4.5,8,4.3,2.4,0,4.4-1.1,4.4-2,0-.8-.9-1.5-3.1-2.5h0Z"/>
              <path class="cls-2" d="M277.9,456c-.2-1.2-.3-2.4-.5-3.6h0l-.7-4.8-.6-4.3-.6-4.5v-.7h-.1c-1,.5-2,1.2-3.1,1.4-.3,0-.5-.1-.6-.5,0-.5,0-.6,1.5-1.1,1.7-.8,3.5-1.5,5.2-2.2h0l5.3-2.3h0c.1,1.2.3,2.4.4,3.6h0l.6,4h0c.5,3.2,1,6.3,1.5,9.5h0l.6,3.6v.5c.1,0-9,1.3-9,1.3h0Z"/>
            </g>
            <path class="cls-7" d="M396.1,395.9c-2.5-.6-6,1.6-6,1.6h-1.6c2.5-2.6,5-5.4,7.3-8.3,7.3.7,14-5.5,13-16.2-14.8,3-15,11.5-14.5,14.8-3.2,2.8-6.3,5.4-9.3,7.9h0l.3-1.3h0s2.8-3,2.6-5.5c-.3-2.5-2.9-5-2.6-7,.2-2,1.5-4,1.5-4,0,0-9.6,4.3-9.6,9.8s6.2,7.5,6.2,7.5h0v1.9h0c-3.8,3.1-7.5,6-11.1,8.7h0s2.9-3,2.6-5.5c-.3-2.5-2.9-5-2.6-7,.3-2,1.6-4,1.6-4,0,0-9.6,4.2-9.6,9.8s6.2,7.5,6.2,7.5h0v.6h0c-4.9,3.6-9.7,6.8-14.1,9.7h0v-.5h.1s2.8-3,2.6-5.5c-.2-2.5-2.8-5-2.6-7,.2-2,1.5-4,1.5-4,0,0-9.6,4.3-9.6,9.8s6.2,7.5,6.2,7.5h0v.9h0c-4.9,3-9.4,5.6-13.7,7.8h0l.2-1.2h0s2.8-3,2.6-5.5c-.3-2.5-2.8-5-2.6-7,.3-2,1.5-4,1.5-4,0,0-9.6,4.3-9.6,9.8s6.2,7.5,6.2,7.5h0v1.2h0c-5.8,2.9-11.1,5.1-15.8,6.8h0l.3-1.6h0s2.8-3,2.6-5.5c-.3-2.5-2.8-5-2.6-7,.3-2,1.6-4,1.6-4,0,0-9.6,4.3-9.6,9.8s6.2,7.5,6.2,7.5h0v1.3h0c-13.9,4.8-23.3,5.3-30,7.7-4.4,2.2,1.3,6.2,1.3,6.2,2,.1,14.1-2.1,30.2-8.3h0l1.1,1.1h0s-2.9,5.7,1.1,9.6c4,3.9,13.9.4,13.9.4,0,0-2.4-.5-4-1.8-1.6-1.3-1.6-4.8-3.2-6.7-1.7-1.9-5.9-2.2-5.9-2.2h0l-1.4-.9h0c4.9-1.9,10.2-4.2,15.7-7h0l1.6.9h0s-1.4,6.2,3.5,9c4.9,2.8,13.6-2.9,13.6-2.9,0,0-2.4,0-4.4-.8-1.9-.8-2.8-4.2-4.9-5.7-2.1-1.5-6.2-.7-6.2-.7h0l-1.5-.6h0c4.7-2.4,9.5-5.1,14.3-8h0l1.9.8h0s-.7,6.3,4.5,8.6c5.1,2.3,13.2-4.3,13.2-4.3,0,0-2.4.3-4.4-.3-2-.6-3.2-3.9-5.5-5.2-2.2-1.3-6.2,0-6.2,0h0l-1.9-.5h0c5.2-3.3,10.4-7,15.5-11.1h0l2.1.6h0s.1,6.3,5.6,8c5.4,1.6,12.5-6,12.5-6,0,0-2.4.6-4.4.2-2-.3-3.7-3.5-6.1-4.5-2.4-.9-6.2.8-6.2.8h0l-2-.2h0c4.2-3.4,8.3-7.1,12.2-11.1h0l1.8.3h0s1.1,6.2,6.7,7.1c5.6.8,11.5-7.6,11.5-7.6,0,0-2.2.9-4.3.8-2.1,0-4.2-2.9-6.8-3.5h0Z"/>
            <path class="cls-7" d="M210.9,441.4c-6.7-2.4-16.1-2.9-30-7.7h0v-1.3h0s6.2-2,6.2-7.5-9.6-9.8-9.6-9.8c0,0,1.3,2,1.6,4,.2,2-2.4,4.5-2.6,7-.3,2.5,2.6,5.5,2.6,5.5h0l.3,1.6h0c-4.7-1.7-10-3.9-15.8-6.8h0v-1.2h0s6.2-2,6.2-7.5-9.6-9.8-9.6-9.8c0,0,1.3,2,1.5,4,.3,2-2.3,4.5-2.6,7-.2,2.5,2.6,5.5,2.6,5.5h0l.2,1.2h0c-4.2-2.2-8.8-4.8-13.7-7.8h0v-.9h0s6.2-2,6.2-7.5-9.6-9.8-9.6-9.8c0,0,1.3,2,1.6,4,.3,2-2.3,4.5-2.6,7-.3,2.5,2.6,5.5,2.6,5.5h0v.5h0c-4.4-2.8-9.1-6-14-9.7h0v-.6h0s6.2-2,6.2-7.5-9.6-9.8-9.6-9.8c0,0,1.3,2,1.6,4,.3,2-2.4,4.5-2.6,7-.3,2.5,2.6,5.5,2.6,5.5h0c-3.5-2.6-7.3-5.5-11.1-8.6h0v-1.9h0s6.2-2,6.2-7.5-9.6-9.8-9.6-9.8c0,0,1.3,2,1.5,4,.3,2-2.3,4.5-2.6,7-.3,2.5,2.6,5.5,2.6,5.5h0l.3,1.3h0c-3-2.4-6.1-5.1-9.3-7.9.5-3.2.3-11.7-14.5-14.8-1,10.7,5.7,16.9,13,16.2,2.4,2.9,4.8,5.7,7.4,8.3h-1.6s-3.5-2.3-6-1.6c-2.5.6-4.7,3.5-6.7,3.5-2.1,0-4.4-.8-4.4-.8,0,0,5.9,8.5,11.5,7.6,5.6-.9,6.7-7.1,6.7-7.1h0l1.8-.3h0c3.9,4,8,7.7,12.2,11.1h0l-2,.2h0s-3.8-1.7-6.2-.8c-2.4,1-4.1,4.1-6.2,4.5-2.1.4-4.4-.2-4.4-.2,0,0,7,7.6,12.5,6,5.4-1.7,5.6-8,5.6-8h0l2-.6h0c5.1,4.1,10.3,7.8,15.5,11.1h0l-1.9.5h0s-4-1.3-6.3,0c-2.2,1.3-3.5,4.6-5.5,5.2-2,.6-4.4.3-4.4.3,0,0,8,6.6,13.2,4.3,5.2-2.3,4.4-8.6,4.4-8.6h0l1.9-.8h0c4.8,3,9.6,5.7,14.3,8h0l-1.5.6h0s-4.1-.8-6.3.7c-2,1.5-3,4.9-4.8,5.7-1.9.8-4.4.8-4.4.8,0,0,8.7,5.8,13.6,2.9,4.9-2.8,3.5-9,3.5-9h0l1.6-.9h0c5.4,2.7,10.8,5,15.7,7h0l-1.4.9h0s-4.2.2-5.8,2.2c-1.6,1.9-1.6,5.5-3.3,6.7-1.7,1.2-4,1.8-4,1.8,0,0,9.9,3.5,13.9-.4,4-3.9,1.1-9.6,1.1-9.6h0l1.1-1.1h0c16.1,6.2,28.2,8.4,30.2,8.3,0,0,5.7-4,1.3-6.2h0Z"/>
          </g>
        </g>
        <polygon class="cls-7" points="112.8 214.6 115.9 213.6 115.9 208.1 125.3 212.1 133 211.6 139.7 215.6 139.7 224.6 147.5 224.1 145.9 228.6 153.2 235.6 158.9 233.6 165.6 234.6 161.5 227.1 164 224.6 178 236.6 184.8 237.6 201.3 238.1 216.3 228.6 231.8 224.1 246.3 215.1 247.9 217.6 242.2 224.1 243.2 228.1 250.5 223.6 251.7 226.6 255.6 225.6 263.4 231.6 263.9 235.1 257.2 237.1 256.7 245.1 254.1 249.6 246.3 250.1 242.7 257.1 235 262.1 225.6 262.1 222 265.6 225.1 272.1 231.8 272.7 247.4 293.7 242.2 298.2 232.9 297.7 228.7 305.2 205.4 306.7 207 297.7 198.2 284.7 200.3 277.6 181.7 278.1 177.5 273.2 165.6 270.7 150.1 263.1 149 266.6 144.4 261.6 121.1 261.6 115.9 264.1 117.5 271.1 114.4 272.7 107.6 261.6 114.4 257.6 118.5 252.6 115.9 241.6 124.2 235.1 112.3 228.6 112.8 214.6 112.8 214.6"/>
        <polygon class="cls-7" points="250 213.1 251.7 217.1 257.2 216.6 253.1 220.6 255.6 222.6 261.8 222.1 266.5 231.1 277.4 227.1 300.2 241.1 308.9 239.1 310.5 257.6 321.9 283.7 342.6 303.7 348.8 293.7 348.8 285.7 353.5 290.7 366.9 280.7 365.9 275.2 375.2 265.2 333.8 215.6 321.9 215.6 311.5 209.1 297.6 211.6 262.9 203.6 260.8 208.1 250 213.1 250 213.1"/>
        <line class="cls-10" x1="232.9" y1="134.5" x2="258.2" y2="96.9"/>
        <polyline class="cls-1" points="233 134.6 258.4 97 258.1 96.9 232.8 134.4"/>
        <g>
          <polygon class="cls-5" points="156.3 193.1 156.3 163 114.9 163 114.9 193.1 156.3 193.1 156.3 193.1"/>
          <polygon class="cls-5" points="204.9 193.1 204.9 163 251.7 163 251.7 193.1 204.9 193.1 204.9 193.1"/>
          <path class="cls-5" d="M308.4,163h-40.4v30h6.2v97.6h0s0,32-39.9,32-39.3-32-39.3-32h0v-97.6h5.7v-30h-40.4v30h7.3v97.6c0,4.5,0,58,67.3,58s67.8-54.1,67.8-58v-97.6h5.7v-30h0Z"/>
          <path class="cls-5" d="M307.9,248h43.5c4.1,0,24.3-3.9,24.3-29.4s-19.7-25.5-23.3-25.5h-39.3v-30h38.8s51.8.5,51.8,55-45,57.1-52.2,57.1h-43.5v-27.2h0Z"/>
          <path class="cls-5" d="M167.7,353.3h27.4v-8h0c-24.8-13.5-27.4-31.5-27.4-31.5h0v39.6h0Z"/>
          <path class="cls-5" d="M302.7,353.3h-27.4v-8h0c24.9-13.5,27.4-32.5,27.4-32.5h0v40.5h0Z"/>
        </g>
        <g>
          <line class="cls-9" x1="137.2" y1="369.5" x2="137.2" y2="369.5"/>
          <g>
            <path class="cls-2" d="M137.2,339.3c-2.2,0-4.1,1.7-4.1,3.9s1.8,4,4.1,4,4-1.8,4-4-1.8-3.9-4-3.9Z"/>
            <path class="cls-2" d="M160,356.8c0-.2,0-.5,0-.7,0-2.8-1.6-6.3-4.4-10.1-.7-.9-1.5-1.9-2.3-2.8.8-.9,1.6-1.9,2.3-2.8,2.8-3.7,4.4-7.3,4.4-10.1s-.3-2.4-1-3.3c-1.2-1.5-3.2-2.2-5.7-2.2-2.2,0-4.7.5-7.5,1.4-.2-.6-.4-1.2-.7-1.8-1-2.4-2.1-4.4-3.5-5.7-.6-.7-1.3-1.2-2.1-1.6-.2-1.4-1.5-2.5-3-2.5s-3,1.3-3,2.9,0,.2,0,.3c-.3.2-.6.5-.9.8-1.6,1.7-3.1,4.3-4.2,7.6-2.8-.9-5.4-1.4-7.5-1.4-2.5,0-4.5.7-5.7,2.2-.7.9-1,2-1,3.3,0,2.8,1.6,6.3,4.4,10.1.7.9,1.5,1.9,2.3,2.8-.8.9-1.6,1.9-2.3,2.8-2.5,3.4-4.1,6.6-4.4,9.3-1.6,0-2.8,1.3-2.8,2.9s1.3,2.9,3,2.9c.7,0,1.4-.3,1.9-.7,1.2.8,2.7,1.1,4.6,1.1,2.2,0,4.7-.5,7.5-1.5.2.6.4,1.2.7,1.8,1,2.4,2.2,4.4,3.5,5.7,1.3,1.4,2.8,2.2,4.4,2.2s3.1-.8,4.4-2.2c1.6-1.7,3.1-4.3,4.2-7.6,2.8,1,5.4,1.5,7.6,1.5,1,0,1.9-.1,2.8-.3.5.5,1.3.9,2.2.9,1.7,0,3-1.3,3-2.9,0-1-.5-1.9-1.3-2.4ZM153.3,325.5c2.4,0,4.2.6,5.2,1.9.6.8.9,1.7.9,2.9,0,2.6-1.5,6-4.3,9.7-.7.9-1.4,1.8-2.2,2.7-1.4-1.6-3.1-3.2-4.9-4.7-.3-4.1-1.1-7.9-2.1-11,2.8-.9,5.3-1.4,7.4-1.4ZM148.1,338.9c1.6,1.4,3.1,2.9,4.4,4.3-1.3,1.4-2.8,2.9-4.4,4.3,0-1.4.1-2.8.1-4.3s0-2.9-.2-4.3ZM147.6,343.2c0,1.7,0,3.3-.2,4.9-1.2,1.1-2.5,2.1-3.9,3.1-2.1,1.6-4.3,3-6.4,4.2-2.1-1.2-4.2-2.6-6.4-4.2-1.4-1-2.7-2.1-3.9-3.1-.1-1.6-.2-3.2-.2-4.9s0-3.3.2-4.9c1.2-1.1,2.5-2.1,3.9-3.1,2.1-1.6,4.3-3,6.4-4.2,2.1,1.2,4.3,2.6,6.4,4.2,1.4,1,2.7,2.1,3.9,3.1.1,1.6.2,3.2.2,4.9ZM147.3,337.3c-1.1-.9-2.2-1.8-3.4-2.7-2-1.5-4.1-2.8-6.1-4,2.6-1.5,5.2-2.6,7.5-3.5.9,3,1.6,6.4,2,10.2ZM129.8,324.7c1-2.3,2.1-4.2,3.4-5.5.2-.2.4-.4.6-.5.4,1.1,1.5,1.9,2.8,1.9s2.8-1.1,3-2.6c.5.3,1.1.7,1.6,1.3,1.6,1.6,2.9,4.1,4,7.3-2.5.9-5.2,2.1-8,3.7-2.8-1.6-5.5-2.8-8-3.7.2-.6.4-1.2.7-1.8ZM129,327.1c2.4.8,4.9,2,7.5,3.5-2,1.2-4.1,2.5-6.1,4-1.2.9-2.3,1.8-3.4,2.7.4-3.8,1-7.3,2-10.2ZM119.2,340c-2.8-3.7-4.3-7.1-4.3-9.7,0-1.1.3-2.1.9-2.9,1-1.3,2.8-1.9,5.2-1.9,2.1,0,4.6.5,7.3,1.4-1,3.2-1.7,7-2.1,11.1-1.8,1.6-3.4,3.1-4.8,4.7-.8-.9-1.5-1.8-2.2-2.7ZM126.2,347.4c-1.6-1.4-3-2.8-4.3-4.3,1.3-1.4,2.7-2.9,4.3-4.3,0,1.4-.1,2.8-.1,4.3,0,1.5,0,2.9.2,4.3ZM121,360.9c-1.7,0-3.1-.3-4.1-1,.4-.5.6-1.1.6-1.8,0-1.5-1.1-2.7-2.6-2.9.3-2.5,1.7-5.6,4.2-8.9.7-.9,1.4-1.8,2.2-2.7,1.4,1.6,3,3.1,4.8,4.7.3,4.1,1.1,7.9,2.1,11.1-2.8.9-5.3,1.4-7.3,1.4ZM127,349c1.1.9,2.2,1.8,3.4,2.7,2,1.5,4.1,2.9,6.1,4.1-2.6,1.5-5.2,2.6-7.5,3.5-.9-3-1.6-6.5-2-10.3ZM144.5,361.6c-1,2.4-2.1,4.2-3.4,5.5-1.3,1.3-2.6,2-4,2s-2.7-.7-4-2c-1.6-1.6-2.9-4.1-4-7.3,2.5-.9,5.2-2.2,8-3.7,2.8,1.6,5.5,2.8,8,3.7-.2.6-.4,1.2-.7,1.8ZM145.3,359.2c-2.4-.9-4.9-2-7.5-3.5,2-1.2,4.1-2.5,6.1-4.1,1.2-.9,2.3-1.8,3.4-2.7-.4,3.8-1,7.3-2,10.2ZM153.3,360.9c-2.1,0-4.6-.5-7.4-1.4,1-3.2,1.7-7,2.1-11.1,1.8-1.6,3.4-3.1,4.9-4.7.8.9,1.5,1.8,2.2,2.7,2.8,3.7,4.3,7.1,4.3,9.7s0,.3,0,.4c-.3-.1-.7-.2-1.1-.2-1.7,0-3,1.3-3,2.9s.2,1,.4,1.5c-.7.2-1.5.3-2.4.3Z"/>
          </g>
        </g>
        <g>
          <path class="cls-1" d="M219,104.5s1.1-.3,3-.6c1.9-.3,4.5-.6,7.5-.6,5.4,0,11.8,1.1,17,5.1l.2-.3c-5.2-4.1-11.7-5.2-17.2-5.2s-10.6,1.3-10.6,1.3v.3Z"/>
          <path class="cls-1" d="M216.4,108.3s1.1-.3,3-.6c1.9-.3,4.5-.6,7.5-.6,5.4,0,11.8,1.1,17,5.1l.2-.3c-5.2-4.1-11.7-5.2-17.2-5.2s-10.6,1.3-10.6,1.3v.3Z"/>
          <path class="cls-1" d="M214.2,112.1s1.1-.3,3-.6c1.9-.3,4.5-.6,7.5-.6,5.4,0,11.8,1.1,17,5.1l.2-.2c-5.2-4.1-11.8-5.2-17.2-5.2s-10.6,1.3-10.6,1.3v.3Z"/>
          <path class="cls-1" d="M227.2,93.1s1.1-.3,3-.6c1.9-.3,4.5-.6,7.4-.6,5.4,0,11.8,1.1,17,5.1l.2-.2c-5.2-4.1-11.8-5.2-17.2-5.2s-10.5,1.3-10.6,1.3v.3Z"/>
          <path class="cls-1" d="M224.5,96.9s1.1-.3,3-.6c1.9-.3,4.5-.7,7.5-.7,5.4,0,11.8,1.1,17,5.1l.2-.3c-5.2-4.1-11.7-5.2-17.1-5.2s-10.6,1.3-10.6,1.3v.3Z"/>
          <path class="cls-1" d="M222.4,100.8s1.1-.3,3-.6c1.9-.3,4.5-.6,7.5-.6,5.4,0,11.8,1.1,16.9,5.1l.2-.2c-5.2-4.1-11.7-5.2-17.1-5.2s-10.6,1.3-10.6,1.3v.3Z"/>
          <path class="cls-1" d="M211.6,115.5s1.1-.3,3-.6c1.9-.3,4.5-.6,7.5-.6,5.4,0,11.8,1.1,17,5.1l.2-.3c-5.2-4.1-11.7-5.2-17.2-5.2s-10.6,1.3-10.6,1.3v.3Z"/>
          <path class="cls-1" d="M208.9,119.3s1.1-.3,3-.6c1.9-.3,4.5-.6,7.5-.6,5.4,0,11.8,1.1,16.9,5.1l.2-.3c-5.2-4.1-11.7-5.2-17.1-5.2s-10.6,1.3-10.6,1.3v.3Z"/>
          <path class="cls-1" d="M206.8,123.2s1.1-.3,3-.6c1.9-.3,4.5-.6,7.5-.6,5.4,0,11.8,1.1,17,5.1l.2-.3c-5.2-4.1-11.7-5.2-17.1-5.2s-10.6,1.3-10.6,1.3v.3Z"/>
          <path class="cls-1" d="M257,106.8s1.1-.3,3-.6c1.9-.3,4.5-.6,7.4-.6,5.4,0,11.8,1.1,16.9,5.1l.2-.2c-5.2-4.1-11.7-5.2-17.1-5.2s-10.5,1.3-10.6,1.3v.3Z"/>
          <path class="cls-1" d="M254.4,110.6s1.1-.3,3-.6c1.9-.3,4.5-.7,7.5-.7,5.4,0,11.8,1.1,16.9,5.1l.2-.3c-5.2-4.1-11.7-5.2-17.1-5.2s-10.6,1.3-10.6,1.3v.3Z"/>
          <path class="cls-1" d="M252.2,114.5s1.1-.3,3-.6c1.9-.3,4.5-.6,7.5-.6,5.4,0,11.8,1.1,16.9,5.1l.2-.2c-5.2-4.1-11.7-5.2-17.1-5.2s-10.6,1.3-10.6,1.3v.3Z"/>
          <path class="cls-1" d="M265.1,95.5s1.1-.3,3-.6c1.9-.3,4.5-.6,7.5-.6,5.4,0,11.8,1.1,16.9,5.1l.2-.2c-5.2-4.1-11.7-5.2-17.2-5.2s-10.6,1.3-10.6,1.3v.3Z"/>
          <path class="cls-1" d="M262.5,99.3s1.1-.3,3-.6c1.9-.3,4.5-.6,7.4-.6,5.4,0,11.8,1.1,17,5.1l.2-.3c-5.2-4.1-11.8-5.2-17.2-5.2s-10.5,1.3-10.6,1.3v.3Z"/>
          <path class="cls-1" d="M260.3,103.1s1.1-.3,3-.6c1.9-.3,4.5-.7,7.5-.7,5.4,0,11.8,1.1,16.9,5.1l.2-.2c-5.2-4.1-11.7-5.2-17.1-5.2s-10.6,1.3-10.6,1.3v.3Z"/>
          <path class="cls-1" d="M249.5,117.8s1.1-.3,3-.6c1.9-.3,4.5-.6,7.5-.6,5.4,0,11.8,1.1,16.9,5.1l.2-.3c-5.2-4.1-11.7-5.2-17.2-5.2s-10.6,1.3-10.6,1.3v.3Z"/>
          <path class="cls-1" d="M246.9,121.7s1.1-.3,3-.6c1.9-.3,4.5-.6,7.5-.6,5.4,0,11.8,1.1,17,5.1l.2-.3c-5.2-4.1-11.8-5.2-17.2-5.2s-10.6,1.3-10.6,1.3v.3Z"/>
          <path class="cls-1" d="M244.7,125.5s1.1-.3,3-.6c1.9-.3,4.5-.6,7.5-.6,5.4,0,11.8,1.1,16.9,5.1l.2-.3c-5.2-4.1-11.7-5.2-17.1-5.2s-10.6,1.3-10.6,1.3v.3Z"/>
        </g>
        <path class="cls-6" d="M137.2,346.6c1.9,0,3.5-1.5,3.5-3.4s-1.6-3.4-3.5-3.4-3.5,1.5-3.5,3.4,1.6,3.4,3.5,3.4h0Z"/>
        <path class="cls-6" d="M136.6,320c1.4,0,2.5-1.1,2.5-2.4s-1.1-2.4-2.5-2.4-2.5,1.1-2.5,2.4,1.1,2.4,2.5,2.4h0Z"/>
        <path class="cls-6" d="M114.5,360.5c1.3,0,2.5-1.1,2.5-2.4s-1.1-2.4-2.5-2.4-2.5,1.1-2.5,2.4,1.1,2.4,2.5,2.4h0Z"/>
        <path class="cls-6" d="M158.2,361.6c1.4,0,2.5-1.1,2.5-2.4s-1.1-2.4-2.5-2.4-2.5,1.1-2.5,2.4,1.1,2.4,2.5,2.4h0Z"/>
        <g>
          <path class="cls-1" d="M373.9,344.2c-.1-1.1-.4-2.2-.7-3.3l4.5-1.8-2.5-6.1-4.6,1.8c-.7-1.2-1.5-2.3-2.3-3.4l3.4-3.3-4.8-4.7-3.5,3.4c-1-.8-2.1-1.5-3.1-2.1l1.8-4.4-6.2-2.5-1.9,4.4c-1.3-.4-2.7-.6-4.1-.8v-4.8h-6.8v4.8c-1.3.2-2.6.4-3.8.7l-1.9-4.4-6.2,2.5,1.9,4.4c-1.1.6-2.2,1.3-3.2,2.1l-3.5-3.4-4.8,4.7,3.5,3.3c-.9,1.1-1.7,2.2-2.3,3.4l-4.5-1.8-2.5,6.1,4.5,1.8c-.3,1.1-.5,2.2-.6,3.3h-5v6.6h5c.1,1.2.4,2.3.7,3.4l-4.5,1.8,2.5,6.1,4.5-1.8c.7,1.2,1.5,2.3,2.3,3.4l-3.5,3.3,4.8,4.6,3.5-3.3c1,.8,2.1,1.4,3.2,2l-1.9,4.4,6.2,2.5,1.9-4.4c1.2.3,2.5.6,3.8.8v4.7h6.8v-4.7c1.4-.2,2.7-.4,4.1-.8l1.9,4.4,6.2-2.5-1.8-4.4c1.1-.6,2.1-1.3,3.2-2l3.4,3.3,4.8-4.6-3.4-3.3c.8-1.1,1.6-2.2,2.3-3.4l4.6,1.8,2.5-6.1-4.5-1.8c.3-1.1.5-2.3.7-3.4h4.7v-6.6h-4.8ZM351.3,367.1c-.7,0-1.2-.5-1.2-1.1v-12.1c1.4-.7,2.6-1.8,3.3-3.2h12.5c.7,0,1.2.6,1.2,1.2,0,.3-.1.5-.2.7h0c-1.9,7-7.5,12.5-14.7,14.3-.3,0-.5.2-.8.2ZM326.8,352.6h0c0-.2-.1-.5-.2-.7,0-.6.5-1.1,1.2-1.2h12.5c.7,1.4,1.8,2.5,3.2,3.2v12.1c0,.6-.6,1.1-1.2,1.1-.2,0-.5-.1-.7-.2h0c-7.2-1.8-12.9-7.3-14.8-14.3ZM326.9,342.5c1.9-7,7.6-12.4,14.8-14.2h0c.3,0,.5-.2.7-.2.6,0,1.1.5,1.2,1.1v12.1c-1.4.7-2.5,1.8-3.2,3.1h-12.5c-.7,0-1.1-.5-1.1-1.2,0-.2.1-.5.2-.7h0ZM349.6,347.5c0,1.5-1.2,2.7-2.8,2.7-1.5,0-2.8-1.2-2.8-2.7s1.2-2.7,2.8-2.7,2.8,1.2,2.8,2.7ZM366.8,342.5h0c0,.3.1.5.2.7,0,.6-.5,1.1-1.2,1.2h-12.5c-.7-1.4-1.8-2.5-3.2-3.1v-12.1c0-.6.6-1.1,1.2-1.1.2,0,.4.1.7.2h0c7.2,1.8,12.9,7.3,14.8,14.2Z"/>
          <path class="cls-8" d="M378.1,350.3v-5.5h-4.7c-.2-1.4-.4-2.8-.8-4.2h0l4.5-1.7-2.1-5.1-4.5,1.7h0c-.8-1.5-1.8-2.8-2.8-4.1h0l3.4-3.3-4-3.9-3.4,3.3h0c-1.2-1-2.5-1.8-3.9-2.5h0l1.8-4.3-5.2-2.1-1.9,4.3h0c-1.6-.5-3.2-.8-4.9-.9h0v-4.7h-5.7v4.7h0c-1.6.2-3.1.5-4.6.9h0l-1.9-4.3-5.3,2.1,1.9,4.3h0c-1.4.7-2.7,1.6-3.9,2.5h0l-3.4-3.3-4,3.9,3.4,3.3h0c-1.1,1.3-2,2.7-2.8,4.1h0l-4.5-1.7-2.1,5.1,4.5,1.7h0c-.4,1.3-.7,2.7-.8,4.2h-5v5.5h4.9c.1,1.5.5,2.9.8,4.3h0l-4.5,1.7,2.1,5.1,4.5-1.7h0c.8,1.4,1.7,2.8,2.8,4.1h0l-3.4,3.3,4,3.9,3.4-3.3h0c1.2,1,2.5,1.8,3.9,2.5h0l-1.9,4.3,5.3,2.1,1.9-4.3h0c1.5.4,3.1.7,4.6.9h0v4.6h5.7v-4.6h0c1.7-.1,3.3-.5,4.9-.9h0l1.9,4.3,5.2-2.1-1.8-4.3h0c1.3-.7,2.7-1.5,3.9-2.5h0l3.4,3.3,4-3.9-3.4-3.3h0c1.1-1.3,2-2.7,2.8-4.1h0l4.5,1.7,2.1-5.1-4.5-1.7h0c.4-1.4.7-2.8.9-4.3h4.7ZM346.8,350.7h0c-1.8,0-3.3-1.4-3.3-3.2s1.5-3.2,3.3-3.2,3.3,1.4,3.3,3.2-1.5,3.2-3.3,3.2h0ZM340.7,350.2h0c.7,1.5,1.9,2.7,3.5,3.4h0v12.5h0c0,.9-.8,1.6-1.8,1.6-.3,0-.6-.2-.9-.2-7.4-1.9-13.2-7.5-15.1-14.7,0-.3-.1-.5-.2-.8,0-.9.7-1.6,1.6-1.7h12.9ZM365.9,350.2h0c.9.1,1.6.8,1.6,1.7,0,.3-.1.5-.2.8-1.9,7.1-7.7,12.8-15.1,14.7-.3,0-.6.2-.9.2-1,0-1.7-.7-1.8-1.6h0v-12.5h0c1.5-.7,2.8-1.8,3.5-3.4h12.9ZM344.1,341.5h0c-1.5.7-2.8,1.9-3.5,3.4h-12.9c-.9,0-1.7-.8-1.7-1.7,0-.3.1-.5.2-.8,1.9-7.1,7.7-12.8,15.2-14.6.3,0,.5-.2.8-.2.9,0,1.7.7,1.8,1.6h0v12.5h0ZM353.1,344.9h0c-.7-1.5-1.9-2.7-3.5-3.4h0v-12.5h0c.1-.9.8-1.6,1.8-1.6.3,0,.6.1.8.2,7.4,1.8,13.2,7.5,15.2,14.6,0,.3.2.6.2.8,0,.9-.7,1.7-1.7,1.7h-12.9Z"/>
        </g>
      </g>
    </g>
  </g>
</svg>